<mxfile host="app.diagrams.net" agent="Mozilla/5.0 (Windows NT 10.0; Win64; x64) AppleWebKit/537.36 (KHTML, like Gecko) Chrome/126.0.0.0 YaBrowser/24.7.0.0 Safari/537.36" version="24.7.7">
  <diagram name="Страница — 1" id="HMDeQ90U2HN6mBr4qa_h">
    <mxGraphModel dx="744" dy="2274" grid="1" gridSize="10" guides="1" tooltips="1" connect="1" arrows="1" fold="1" page="1" pageScale="1" pageWidth="827" pageHeight="1169" math="0" shadow="0">
      <root>
        <mxCell id="0" />
        <mxCell id="1" parent="0" />
        <mxCell id="N7e5xdWSEYIiSyYDzp1l-2" value="Interface tg-bot" style="text;html=1;align=center;verticalAlign=middle;whiteSpace=wrap;rounded=0;fillColor=#ffe6cc;strokeColor=#d79b00;" parent="1" vertex="1">
          <mxGeometry x="100" y="110" width="60" height="30" as="geometry" />
        </mxCell>
        <mxCell id="N7e5xdWSEYIiSyYDzp1l-3" value="backend functions" style="text;html=1;align=center;verticalAlign=middle;whiteSpace=wrap;rounded=0;fillColor=#ffe6cc;strokeColor=#d79b00;" parent="1" vertex="1">
          <mxGeometry x="520" y="110" width="60" height="30" as="geometry" />
        </mxCell>
        <mxCell id="N7e5xdWSEYIiSyYDzp1l-26" style="edgeStyle=orthogonalEdgeStyle;rounded=0;orthogonalLoop=1;jettySize=auto;html=1;entryX=1;entryY=0.5;entryDx=0;entryDy=0;" parent="1" source="N7e5xdWSEYIiSyYDzp1l-4" target="N7e5xdWSEYIiSyYDzp1l-24" edge="1">
          <mxGeometry relative="1" as="geometry">
            <Array as="points">
              <mxPoint x="870" y="370" />
              <mxPoint x="870" y="815" />
            </Array>
          </mxGeometry>
        </mxCell>
        <mxCell id="N7e5xdWSEYIiSyYDzp1l-4" value="BD" style="shape=cylinder3;whiteSpace=wrap;html=1;boundedLbl=1;backgroundOutline=1;size=15;" parent="1" vertex="1">
          <mxGeometry x="930" y="330" width="60" height="80" as="geometry" />
        </mxCell>
        <mxCell id="N7e5xdWSEYIiSyYDzp1l-7" value="" style="edgeStyle=orthogonalEdgeStyle;rounded=0;orthogonalLoop=1;jettySize=auto;html=1;" parent="1" source="N7e5xdWSEYIiSyYDzp1l-5" target="N7e5xdWSEYIiSyYDzp1l-6" edge="1">
          <mxGeometry relative="1" as="geometry" />
        </mxCell>
        <mxCell id="N7e5xdWSEYIiSyYDzp1l-5" value="Enter API&amp;nbsp;&lt;span style=&quot;background-color: initial;&quot;&gt;Key&lt;/span&gt;" style="rhombus;whiteSpace=wrap;html=1;" parent="1" vertex="1">
          <mxGeometry x="80" y="200" width="100" height="100" as="geometry" />
        </mxCell>
        <mxCell id="N7e5xdWSEYIiSyYDzp1l-8" style="edgeStyle=orthogonalEdgeStyle;rounded=0;orthogonalLoop=1;jettySize=auto;html=1;" parent="1" source="N7e5xdWSEYIiSyYDzp1l-6" target="N7e5xdWSEYIiSyYDzp1l-4" edge="1">
          <mxGeometry relative="1" as="geometry" />
        </mxCell>
        <mxCell id="N7e5xdWSEYIiSyYDzp1l-6" value="Save API to BD" style="rounded=1;whiteSpace=wrap;html=1;" parent="1" vertex="1">
          <mxGeometry x="490" y="220" width="120" height="60" as="geometry" />
        </mxCell>
        <mxCell id="N7e5xdWSEYIiSyYDzp1l-12" value="" style="edgeStyle=orthogonalEdgeStyle;rounded=0;orthogonalLoop=1;jettySize=auto;html=1;" parent="1" source="N7e5xdWSEYIiSyYDzp1l-9" target="N7e5xdWSEYIiSyYDzp1l-11" edge="1">
          <mxGeometry relative="1" as="geometry" />
        </mxCell>
        <mxCell id="N7e5xdWSEYIiSyYDzp1l-9" value="Enter Parameters" style="rhombus;whiteSpace=wrap;html=1;" parent="1" vertex="1">
          <mxGeometry x="75" y="340" width="110" height="120" as="geometry" />
        </mxCell>
        <mxCell id="N7e5xdWSEYIiSyYDzp1l-10" value="id,&amp;nbsp;&lt;div&gt;user,&amp;nbsp;&lt;/div&gt;&lt;div&gt;key api&lt;/div&gt;" style="text;html=1;align=center;verticalAlign=middle;whiteSpace=wrap;rounded=0;" parent="1" vertex="1">
          <mxGeometry x="620" y="210" width="60" height="30" as="geometry" />
        </mxCell>
        <mxCell id="N7e5xdWSEYIiSyYDzp1l-11" value="Save parameters to BD" style="whiteSpace=wrap;html=1;" parent="1" vertex="1">
          <mxGeometry x="490" y="370" width="120" height="60" as="geometry" />
        </mxCell>
        <mxCell id="N7e5xdWSEYIiSyYDzp1l-13" style="edgeStyle=orthogonalEdgeStyle;rounded=0;orthogonalLoop=1;jettySize=auto;html=1;entryX=0;entryY=0;entryDx=0;entryDy=15;entryPerimeter=0;" parent="1" source="N7e5xdWSEYIiSyYDzp1l-11" target="N7e5xdWSEYIiSyYDzp1l-4" edge="1">
          <mxGeometry relative="1" as="geometry" />
        </mxCell>
        <mxCell id="N7e5xdWSEYIiSyYDzp1l-14" value="id,&lt;div&gt;user,&lt;/div&gt;&lt;div&gt;sl&lt;/div&gt;&lt;div&gt;tp&lt;/div&gt;&lt;div&gt;quantity&lt;/div&gt;" style="text;html=1;align=center;verticalAlign=middle;whiteSpace=wrap;rounded=0;" parent="1" vertex="1">
          <mxGeometry x="610" y="290" width="110" height="150" as="geometry" />
        </mxCell>
        <mxCell id="N7e5xdWSEYIiSyYDzp1l-17" value="" style="edgeStyle=orthogonalEdgeStyle;rounded=0;orthogonalLoop=1;jettySize=auto;html=1;" parent="1" source="N7e5xdWSEYIiSyYDzp1l-15" target="N7e5xdWSEYIiSyYDzp1l-16" edge="1">
          <mxGeometry relative="1" as="geometry" />
        </mxCell>
        <mxCell id="N7e5xdWSEYIiSyYDzp1l-15" value="Choose Account" style="rhombus;whiteSpace=wrap;html=1;" parent="1" vertex="1">
          <mxGeometry x="80" y="490" width="120" height="120" as="geometry" />
        </mxCell>
        <mxCell id="N7e5xdWSEYIiSyYDzp1l-19" value="" style="edgeStyle=orthogonalEdgeStyle;rounded=0;orthogonalLoop=1;jettySize=auto;html=1;" parent="1" source="N7e5xdWSEYIiSyYDzp1l-16" target="N7e5xdWSEYIiSyYDzp1l-18" edge="1">
          <mxGeometry relative="1" as="geometry" />
        </mxCell>
        <mxCell id="N7e5xdWSEYIiSyYDzp1l-16" value="Get all accounts" style="rounded=1;whiteSpace=wrap;html=1;" parent="1" vertex="1">
          <mxGeometry x="490" y="500" width="120" height="60" as="geometry" />
        </mxCell>
        <mxCell id="N7e5xdWSEYIiSyYDzp1l-21" value="" style="edgeStyle=orthogonalEdgeStyle;rounded=0;orthogonalLoop=1;jettySize=auto;html=1;" parent="1" source="N7e5xdWSEYIiSyYDzp1l-18" target="N7e5xdWSEYIiSyYDzp1l-20" edge="1">
          <mxGeometry relative="1" as="geometry" />
        </mxCell>
        <mxCell id="N7e5xdWSEYIiSyYDzp1l-18" value="choose account" style="rounded=1;whiteSpace=wrap;html=1;" parent="1" vertex="1">
          <mxGeometry x="490" y="570" width="120" height="60" as="geometry" />
        </mxCell>
        <mxCell id="N7e5xdWSEYIiSyYDzp1l-20" value="save choosed acount to BD" style="rounded=1;whiteSpace=wrap;html=1;" parent="1" vertex="1">
          <mxGeometry x="490" y="640" width="120" height="60" as="geometry" />
        </mxCell>
        <mxCell id="N7e5xdWSEYIiSyYDzp1l-22" style="edgeStyle=orthogonalEdgeStyle;rounded=0;orthogonalLoop=1;jettySize=auto;html=1;entryX=0;entryY=0.5;entryDx=0;entryDy=0;entryPerimeter=0;" parent="1" source="N7e5xdWSEYIiSyYDzp1l-20" target="N7e5xdWSEYIiSyYDzp1l-4" edge="1">
          <mxGeometry relative="1" as="geometry">
            <Array as="points">
              <mxPoint x="800" y="670" />
              <mxPoint x="800" y="370" />
            </Array>
          </mxGeometry>
        </mxCell>
        <mxCell id="N7e5xdWSEYIiSyYDzp1l-25" value="" style="edgeStyle=orthogonalEdgeStyle;rounded=0;orthogonalLoop=1;jettySize=auto;html=1;" parent="1" source="N7e5xdWSEYIiSyYDzp1l-23" target="N7e5xdWSEYIiSyYDzp1l-24" edge="1">
          <mxGeometry relative="1" as="geometry" />
        </mxCell>
        <mxCell id="N7e5xdWSEYIiSyYDzp1l-23" value="trade ticker&lt;div&gt;format &quot;SBER&quot;&lt;/div&gt;" style="rhombus;whiteSpace=wrap;html=1;" parent="1" vertex="1">
          <mxGeometry x="80" y="760" width="110" height="110" as="geometry" />
        </mxCell>
        <mxCell id="N7e5xdWSEYIiSyYDzp1l-29" value="" style="edgeStyle=orthogonalEdgeStyle;rounded=0;orthogonalLoop=1;jettySize=auto;html=1;" parent="1" source="N7e5xdWSEYIiSyYDzp1l-24" target="N7e5xdWSEYIiSyYDzp1l-28" edge="1">
          <mxGeometry relative="1" as="geometry" />
        </mxCell>
        <mxCell id="N7e5xdWSEYIiSyYDzp1l-24" value="import data from BD" style="rounded=1;whiteSpace=wrap;html=1;" parent="1" vertex="1">
          <mxGeometry x="490" y="785" width="120" height="60" as="geometry" />
        </mxCell>
        <mxCell id="N7e5xdWSEYIiSyYDzp1l-27" value="api key,&lt;div&gt;account id,&lt;/div&gt;&lt;div&gt;quantity,&lt;/div&gt;&lt;div&gt;sl,&lt;/div&gt;&lt;div&gt;tp&lt;/div&gt;" style="text;html=1;align=center;verticalAlign=middle;whiteSpace=wrap;rounded=0;" parent="1" vertex="1">
          <mxGeometry x="680" y="755" width="60" height="30" as="geometry" />
        </mxCell>
        <mxCell id="N7e5xdWSEYIiSyYDzp1l-31" value="" style="edgeStyle=orthogonalEdgeStyle;rounded=0;orthogonalLoop=1;jettySize=auto;html=1;" parent="1" source="N7e5xdWSEYIiSyYDzp1l-28" target="N7e5xdWSEYIiSyYDzp1l-30" edge="1">
          <mxGeometry relative="1" as="geometry" />
        </mxCell>
        <mxCell id="N7e5xdWSEYIiSyYDzp1l-28" value="get instrument id" style="rounded=1;whiteSpace=wrap;html=1;" parent="1" vertex="1">
          <mxGeometry x="487.5" y="860" width="120" height="60" as="geometry" />
        </mxCell>
        <mxCell id="N7e5xdWSEYIiSyYDzp1l-32" style="edgeStyle=orthogonalEdgeStyle;rounded=0;orthogonalLoop=1;jettySize=auto;html=1;exitX=0.5;exitY=1;exitDx=0;exitDy=0;" parent="1" source="N7e5xdWSEYIiSyYDzp1l-30" edge="1">
          <mxGeometry relative="1" as="geometry">
            <mxPoint x="437.5" y="1040" as="targetPoint" />
          </mxGeometry>
        </mxCell>
        <mxCell id="N7e5xdWSEYIiSyYDzp1l-33" style="edgeStyle=orthogonalEdgeStyle;rounded=0;orthogonalLoop=1;jettySize=auto;html=1;exitX=0.5;exitY=1;exitDx=0;exitDy=0;" parent="1" source="N7e5xdWSEYIiSyYDzp1l-30" edge="1">
          <mxGeometry relative="1" as="geometry">
            <mxPoint x="657.5" y="1040" as="targetPoint" />
          </mxGeometry>
        </mxCell>
        <mxCell id="N7e5xdWSEYIiSyYDzp1l-30" value="post trade" style="rounded=1;whiteSpace=wrap;html=1;" parent="1" vertex="1">
          <mxGeometry x="487.5" y="935" width="120" height="60" as="geometry" />
        </mxCell>
        <mxCell id="N7e5xdWSEYIiSyYDzp1l-34" value="if reject" style="text;html=1;align=center;verticalAlign=middle;whiteSpace=wrap;rounded=0;" parent="1" vertex="1">
          <mxGeometry x="427.5" y="995" width="60" height="30" as="geometry" />
        </mxCell>
        <mxCell id="N7e5xdWSEYIiSyYDzp1l-35" value="show error" style="rounded=1;whiteSpace=wrap;html=1;" parent="1" vertex="1">
          <mxGeometry x="377.5" y="1039" width="120" height="60" as="geometry" />
        </mxCell>
        <mxCell id="N7e5xdWSEYIiSyYDzp1l-36" value="if till" style="text;html=1;align=center;verticalAlign=middle;whiteSpace=wrap;rounded=0;" parent="1" vertex="1">
          <mxGeometry x="587.5" y="995" width="60" height="30" as="geometry" />
        </mxCell>
        <mxCell id="N7e5xdWSEYIiSyYDzp1l-39" value="" style="edgeStyle=orthogonalEdgeStyle;rounded=0;orthogonalLoop=1;jettySize=auto;html=1;" parent="1" source="N7e5xdWSEYIiSyYDzp1l-37" target="N7e5xdWSEYIiSyYDzp1l-38" edge="1">
          <mxGeometry relative="1" as="geometry" />
        </mxCell>
        <mxCell id="N7e5xdWSEYIiSyYDzp1l-37" value="post stop loss" style="rounded=1;whiteSpace=wrap;html=1;" parent="1" vertex="1">
          <mxGeometry x="602.5" y="1039" width="120" height="60" as="geometry" />
        </mxCell>
        <mxCell id="N7e5xdWSEYIiSyYDzp1l-43" style="edgeStyle=orthogonalEdgeStyle;rounded=0;orthogonalLoop=1;jettySize=auto;html=1;" parent="1" source="N7e5xdWSEYIiSyYDzp1l-38" edge="1">
          <mxGeometry relative="1" as="geometry">
            <mxPoint x="960" y="410" as="targetPoint" />
          </mxGeometry>
        </mxCell>
        <mxCell id="N7e5xdWSEYIiSyYDzp1l-45" value="" style="edgeStyle=orthogonalEdgeStyle;rounded=0;orthogonalLoop=1;jettySize=auto;html=1;" parent="1" source="N7e5xdWSEYIiSyYDzp1l-38" target="N7e5xdWSEYIiSyYDzp1l-44" edge="1">
          <mxGeometry relative="1" as="geometry" />
        </mxCell>
        <mxCell id="N7e5xdWSEYIiSyYDzp1l-38" value="post take profit" style="rounded=1;whiteSpace=wrap;html=1;" parent="1" vertex="1">
          <mxGeometry x="602.5" y="1120" width="120" height="60" as="geometry" />
        </mxCell>
        <mxCell id="N7e5xdWSEYIiSyYDzp1l-40" style="edgeStyle=orthogonalEdgeStyle;rounded=0;orthogonalLoop=1;jettySize=auto;html=1;entryX=0.5;entryY=1;entryDx=0;entryDy=0;entryPerimeter=0;exitX=1;exitY=0.5;exitDx=0;exitDy=0;" parent="1" source="N7e5xdWSEYIiSyYDzp1l-37" edge="1">
          <mxGeometry relative="1" as="geometry">
            <mxPoint x="608" y="1096" as="sourcePoint" />
            <mxPoint x="958" y="411" as="targetPoint" />
          </mxGeometry>
        </mxCell>
        <mxCell id="N7e5xdWSEYIiSyYDzp1l-41" value="id trade" style="text;html=1;align=center;verticalAlign=middle;whiteSpace=wrap;rounded=0;" parent="1" vertex="1">
          <mxGeometry x="700" y="935" width="60" height="30" as="geometry" />
        </mxCell>
        <mxCell id="N7e5xdWSEYIiSyYDzp1l-44" value="show result" style="rounded=1;whiteSpace=wrap;html=1;" parent="1" vertex="1">
          <mxGeometry x="602.5" y="1200" width="120" height="60" as="geometry" />
        </mxCell>
        <mxCell id="N7e5xdWSEYIiSyYDzp1l-46" style="edgeStyle=orthogonalEdgeStyle;rounded=0;orthogonalLoop=1;jettySize=auto;html=1;entryX=0.5;entryY=1;entryDx=0;entryDy=0;entryPerimeter=0;" parent="1" source="N7e5xdWSEYIiSyYDzp1l-30" target="N7e5xdWSEYIiSyYDzp1l-4" edge="1">
          <mxGeometry relative="1" as="geometry" />
        </mxCell>
        <mxCell id="N7e5xdWSEYIiSyYDzp1l-47" value="&lt;h1 style=&quot;margin-top: 0px;&quot;&gt;Идеи реализации&lt;/h1&gt;&lt;p&gt;&lt;/p&gt;&lt;ol&gt;&lt;li&gt;в целях безопасности удалять ли ключ ежедневно?&lt;/li&gt;&lt;li&gt;Logging&lt;/li&gt;&lt;li&gt;Раздел о роботе (описание и создатель). Название &quot;queen sergo&quot;. Принципе работы.&lt;/li&gt;&lt;li&gt;Раздел о условиях использования.&lt;/li&gt;&lt;li&gt;Раздел об обновлениях, (изменениях).&lt;/li&gt;&lt;li&gt;Информация об аккаунте (сколько денег и акций)&lt;/li&gt;&lt;li&gt;История сделок&lt;/li&gt;&lt;li&gt;Автоматический поиск по сделкам и обновление информации в БД, что с ними&lt;/li&gt;&lt;li&gt;Отчёт по проценту выигранных и проигранных сделок&lt;/li&gt;&lt;li&gt;Калькулятор отношения риска к прибыли, в том числе на истории сделок&lt;/li&gt;&lt;li&gt;Отчёт по проценту прироста капитала в результате сделок&lt;/li&gt;&lt;li&gt;Автоматическое завершение все сделок в конце дня по результатам настроек (авторобот)&lt;/li&gt;&lt;li&gt;С каким объёмом (процентом) от капитала входить в сделки&lt;/li&gt;&lt;li&gt;Разметка часов, в какое время покупать и продавать.&lt;/li&gt;&lt;li&gt;Предварительный расчёт кол-ва покупаемых акций и есть ли ликвидность под это в стакане&lt;/li&gt;&lt;li&gt;Поиск новостей по Российским акциям.&amp;nbsp;&lt;/li&gt;&lt;/ol&gt;&lt;p&gt;&lt;/p&gt;" style="text;html=1;whiteSpace=wrap;overflow=hidden;rounded=0;" parent="1" vertex="1">
          <mxGeometry x="80" y="-350" width="540" height="350" as="geometry" />
        </mxCell>
      </root>
    </mxGraphModel>
  </diagram>
</mxfile>
